<?xml version="1.0" encoding="utf-8"?>
<!-- Generator: Adobe Illustrator 24.0.3, SVG Export Plug-In . SVG Version: 6.00 Build 0)  -->
<!DOCTYPE svg PUBLIC "-//W3C//DTD SVG 1.1//EN" "http://www.w3.org/Graphics/SVG/1.1/DTD/svg11.dtd" [
	<!ENTITY ns_extend "http://ns.adobe.com/Extensibility/1.0/">
	<!ENTITY ns_ai "http://ns.adobe.com/AdobeIllustrator/10.0/">
	<!ENTITY ns_graphs "http://ns.adobe.com/Graphs/1.0/">
	<!ENTITY ns_vars "http://ns.adobe.com/Variables/1.0/">
	<!ENTITY ns_imrep "http://ns.adobe.com/ImageReplacement/1.0/">
	<!ENTITY ns_sfw "http://ns.adobe.com/SaveForWeb/1.0/">
	<!ENTITY ns_custom "http://ns.adobe.com/GenericCustomNamespace/1.0/">
	<!ENTITY ns_adobe_xpath "http://ns.adobe.com/XPath/1.0/">
]>
<svg version="1.1" id="Ebene_1" xmlns:x="&ns_extend;" xmlns:i="&ns_ai;" xmlns:graph="&ns_graphs;"
	 xmlns="http://www.w3.org/2000/svg" xmlns:xlink="http://www.w3.org/1999/xlink" x="0px" y="0px" viewBox="0 0 516.1 486.2"
	 style="enable-background:new 0 0 516.1 486.2;" xml:space="preserve">
<style type="text/css">
	.st0{fill:#FFED00;}
	.st1{fill:#CEA886;stroke:#000000;stroke-width:11;stroke-miterlimit:10;}
	.st2{fill:#3D3D3D;stroke:#000000;stroke-width:19.5274;stroke-miterlimit:10;}
	.st3{fill:#EF7D00;}
	.st4{fill:none;stroke:#000000;stroke-width:9.7637;stroke-miterlimit:10;}
	.st5{fill:#FFFFFF;}
</style>
<metadata>
	<sfw  xmlns="&ns_sfw;">
		<slices></slices>
		<sliceSourceBounds  bottomLeftOrigin="true" height="486.2" width="516.1" x="151.9" y="-540.5"></sliceSourceBounds>
	</sfw>
</metadata>
<g>
	<path class="st0" d="M72.2,73.9c-3,11.5-6.1,22.9-9.1,34.4c-10.6-4.1-21.1-8.1-31.7-12.2l11.5,36.4L4.7,144.2l29.7,24.1l-18.1,25.2
		l31.2,0.2l-0.3,38.5l32.4-24l22,31.6l10.2-32.3l29.5,10.2l-10.2-35.9l36-12.6l-29-21.2l18.2-27.1l-31.7,0.6l0.8-39.6
		c-10.3,6.8-20.7,13.6-31,20.4C87,92.9,79.6,83.4,72.2,73.9z"/>
	<path class="st1" d="M347.5,115.6c-0.2-4-0.6-9.9-0.8-17.1c-0.7-20.8,0-24.2-0.7-33.8c-1.2-15.8-1.9-26.5-9-37.4
		c-2.1-3.2-12.4-19.5-29.7-21.6c-7.4-0.9-14.1,1-17.5,2c-8.8,2.6-14.9,6.8-17.9,9c-19.4,14.2-44.8,43.8-48.8,48.4
		c-12.8,14.9-26.5,30.5-46.8,47.6c-19.6,16.4-31.3,22.4-41.1,26c-4.5,1.7-29.7,11-40.3,6.1c-0.8-0.4-4.7-2.3-6.5-0.8
		c-1.2,1-1,3.1-0.8,5.3c0.2,2,0.4,4.9,2,7.3c0.7,1,2.5,3.4,11.7,5.7c4.2,1.1,7.8,2,13.6,2c9,0.1,17.2-1.9,26.9-5.3
		c15.2-5.4,26-12.4,30.1-15.1c5.9-3.9,23.3-15.6,47.2-40.7c20.6-21.6,33-37.4,33-37.4c3.1-3.9,12.9-16.6,28.9-28.5
		c7.4-5.5,13.2-8.7,19.9-7.7c8,1.2,13,7.7,14.6,9.8c1.1,1.4,5.3,7.1,6.9,22.4c1.3,12.3-0.5,17.8-1.6,42.7c-0.2,4.6-0.3,8.3-0.4,10.6
		C329.4,115.3,338.5,115.4,347.5,115.6z"/>
	<path class="st2" d="M390.4,145.2c1.8-4,2.8-8.5,2.8-13.1c0-18-14.7-32.7-32.7-32.7H306c-18,0-32.7,14.7-32.7,32.7
		c0,5.4,1.3,10.5,3.7,15c-64.6,24.1-110.7,86.4-110.7,159.4c0,93.9,76.1,170.1,170.1,170.1c93.9,0,170.1-76.1,170.1-170.1
		C506.4,231.4,457.8,167.8,390.4,145.2z"/>
	<path class="st3" d="M84.5,118.2c-2,5-4,10-6.1,15c-4.7-2.4-9.4-4.8-14.1-7.2l3.4,17l-18.4,3.2l12.5,12.5l-9.7,10.4l14.5,1.8
		l-2.2,17.4l16.3-9.1l8.5,15.5l6.5-14l13.2,6.2l-2.8-16.8l17.4-3.8l-12.4-11.1l9.9-11.2l-14.8-1.4l2.5-17.8
		c-5.2,2.5-10.3,5-15.5,7.5C90.4,127.6,87.4,122.9,84.5,118.2z"/>
	<path class="st4" d="M89.1,72.8c-5.1,10.7-10.3,21.4-15.4,32.1c-9.6-6-19.2-12-28.9-17.9l4.5,37.9l-39.7,4.3l24.6,29.2l-22.5,21.3
		l30.6,6l-7.6,37.8l36.3-17.4l15.6,35.2l16.1-29.8L130,227l-3.3-37.2l37.8-5.6L140,158l23-23.1l-31.2-5.3l8.2-38.8
		c-11.4,4.7-22.9,9.5-34.3,14.2C100.1,94.2,94.6,83.5,89.1,72.8z"/>
	<path class="st5" d="M296.7,172.1c-11,3.7-17.9,7.3-17.9,7.3c-5.6,3-25,13.4-40.7,30.6c0,0-5.1,5.6-9.2,14.6
		c-3.5,7.6-2.7,10-2.2,11.1c1.8,3.5,7,4.7,10.8,4.3c7.2-0.7,10.7-6.9,17.6-14.6c7.1-7.9,14.1-12.8,28.2-22.5
		c6.6-4.5,15.5-10,27.1-15.2c0,0,0,0,0,0c4.6-1.8,10.5-3.8,11.4-8.1c0.6-3.1-1.6-6.4-3.8-8.1c-3.1-2.4-6.7-2-11.4-1.6
		C302.1,170.3,298.7,171.4,296.7,172.1z"/>
	
		<ellipse transform="matrix(0.4144 -0.9101 0.9101 0.4144 -122.7481 350.6351)" class="st5" cx="211.1" cy="270.7" rx="18.8" ry="12.6"/>
</g>
</svg>
